# xmcd
#
# Track frame offsets:
# 172
# 11042
# 21762
# 29987
# 45537
# 58157
# 67312
# 74210
# 88705
# 101017
# 108725
# 116715
#
# Disc length: 1702 seconds
#
#
# Revision: 2
# Processed by: cddbd v1.4PL0 Copyright (c) Steve Scherf et al.
# Submitted via: FreeRIP 2.00 
#
DISCID=bd06a40c
DTITLE=Koos Du Plessis - Herbergier
DYEAR=1900
DGENRE=Afrikaans
TTITLE0=Skimme
TTITLE1=Vermiste Mense
TTITLE2=Herbergier
TTITLE3=Spore Op Die Maan
TTITLE4=Mornay
TTITLE5=Droom Swendelaar
TTITLE6=Hier's Ons Almal Tesaam
TTITLE7=Nokturne
TTITLE8=Koue-Vuur
TTITLE9=Nes Ek Wil
TTITLE10=Soektog
TTITLE11=Nagwag
EXTD=
EXTT0=
EXTT1=
EXTT2=
EXTT3=
EXTT4=
EXTT5=
EXTT6=
EXTT7=
EXTT8=
EXTT9=
EXTT10=
EXTT11=
PLAYORDER=
